<svg xmlns="http://www.w3.org/2000/svg" viewBox="0 0 480 720" role="img" aria-labelledby="title desc">
  <title id="title">Comedy movie poster placeholder</title>
  <desc id="desc">A stylized comedy movie poster placeholder with theatre masks and warm shapes.</desc>
  <defs>
    <linearGradient id="bg" x1="0" y1="0" x2="1" y2="1">
      <stop offset="0" stop-color="#f4f8f1"/>
      <stop offset="0.48" stop-color="#e0b846"/>
      <stop offset="1" stop-color="#e85d47"/>
    </linearGradient>
  </defs>
  <rect width="480" height="720" fill="url(#bg)"/>
  <circle cx="98" cy="110" r="76" fill="#ffffff" opacity="0.26"/>
  <circle cx="390" cy="610" r="126" fill="#17211b" opacity="0.18"/>
  <path d="M118 238c0-54 42-92 94-78 26 7 44 24 54 46 10-22 28-39 54-46 52-14 94 24 94 78 0 130-148 204-148 204S118 368 118 238z" fill="#17211b" opacity="0.88"/>
  <path d="M190 254c18 22 52 22 70 0M302 254c18 22 52 22 70 0" fill="none" stroke="#f4f8f1" stroke-width="14" stroke-linecap="round"/>
  <path d="M214 332c24 26 80 26 104 0" fill="none" stroke="#f4f8f1" stroke-width="16" stroke-linecap="round"/>
  <path d="M86 516c68-50 240-50 308 0" fill="none" stroke="#17211b" stroke-width="24" stroke-linecap="round" opacity="0.78"/>
  <path d="M134 544c54 34 158 34 212 0" fill="none" stroke="#17211b" stroke-width="18" stroke-linecap="round" opacity="0.62"/>
  <text x="240" y="92" fill="#17211b" font-family="Trebuchet MS, Verdana, sans-serif" font-size="38" font-weight="800" text-anchor="middle" letter-spacing="3">COMEDY</text>
  <text x="240" y="650" fill="#f4f8f1" font-family="Georgia, Times New Roman, serif" font-size="30" font-weight="700" text-anchor="middle">MOVIE</text>
</svg>
